<svg width="81" height="74" viewBox="0 0 81 74" fill="none" xmlns="http://www.w3.org/2000/svg">
<path d="M24 30V67.5L42.5 13.5V44.5L57.5 7" stroke="#736962" stroke-width="4" stroke-linecap="square"/>
<path d="M79.2068 21L43.9922 37.8365C43.9922 33.8365 34.9922 32.3365 34.9922 37.8365C34.9922 38.6698 36.3922 40.4365 41.9922 40.8365C47.5922 41.2365 51.3255 45.0031 52.4922 46.8365C54.4013 49.8365 54.0922 53.5365 52.4922 56.3365C47.9922 64.8365 31.4923 64.3365 25.9923 56.3365C24.4924 53.3365 -3.7856 65.2099 1.70668 63C6.4348 61.0976 32.9922 49.3365 32.9922 49.3365C32.9922 49.3365 33.9922 54.3365 38.4922 54.8365C40.0036 55.0044 42.9922 54.3365 43.4922 52.3365C44.0985 49.9111 41.4922 48.9365 38.4922 48.3365C33.4922 47.3365 24.9922 45.4364 24.9922 37.8365C24.9922 24.2127 46.8741 22.5866 50.4938 32.0866C50.9219 33.2103 79.2068 19.6238 79.2068 21Z" stroke="white" stroke-width="2"/>
<path d="M43.5 42.5C49.3579 27.8553 53.1421 17.6447 59 3" stroke="#736962" stroke-width="4" stroke-linecap="square"/>
<path d="M23.9181 65.3884C23.9222 49.6156 23.9245 40.7725 23.9286 24.9997" stroke="#736962" stroke-width="4" stroke-linecap="square"/>
</svg>
